<svg width="23" height="23" viewBox="0 0 23 23" fill="none" xmlns="http://www.w3.org/2000/svg">
<path d="M15.3889 13.0278L14.8056 13.8333V13.8889L14.8889 13.9722L16.4722 15.5556L18.1111 17.2222L18.9444 18.0278L21.1667 20.25L22.1667 21.2778L22.25 21.5278V21.8056L22.2222 22.0278L22.0556 22.2778C21.9815 22.3333 21.8278 22.4444 21.8056 22.4444C21.7833 22.4444 21.6296 22.4815 21.5556 22.5L21.2222 22.4722L20.9722 22.3611L20.8333 22.2222L20.0278 21.4167L19.0833 20.4722L17.2222 18.6111L15.8889 17.3056L14.9444 16.3611L14.3611 15.8056L13.6111 15.0556L13.3333 15.25L12.75 15.6389L11.6111 16.25L10.3611 16.6667L9.47222 16.8333L8.66667 16.9167H8L7.5 16.8611L7 16.8056L6.44444 16.6944L5.77778 16.5278L5.11111 16.2778L4.55556 16L3.94444 15.6667L3.5 15.3611L3.08333 15.0278L2.66667 14.6944L2.25 14.2778L1.75 13.6944L1.38889 13.1667L1.02778 12.6111L0.777778 12.1111L0.583333 11.6389L0.361111 11.0278L0.222222 10.5L0.111111 9.94444L0.0277778 9.33333L0 8.88889V8.25L0.0277778 7.83333L0.0833333 7.33333L0.194444 6.77778L0.361111 6.11111L0.611111 5.41667L0.916667 4.75L1.19444 4.27778L1.47222 3.83333L1.69444 3.52778L2.11111 3.02778L2.63889 2.47222L2.94444 2.22222L3.33333 1.88889L3.88889 1.52778L4.30556 1.27778L4.83333 1L5.30556 0.805556L5.80556 0.611111L6.38889 0.472222L6.86111 0.361111L7.44444 0.277778L8.16667 0.25H8.94444L9.38889 0.305556L10.0278 0.416667L10.6667 0.583333L11.4167 0.833333L11.9444 1.05556L12.5278 1.36111L13.0556 1.69444L13.4722 2L13.9167 2.38889L14.3611 2.83333L14.8056 3.30556L15.1944 3.83333L15.5556 4.38889L15.8889 5.02778L16.0833 5.47222L16.3333 6.19444L16.5 6.86111L16.6111 7.44444L16.6667 8.25V9.19444L16.6111 9.72222L16.5278 10.2222L16.4167 10.6111L16.1667 11.4722L15.8889 12.1111L15.3889 13.0278Z" fill="#5636D2"/>
<ellipse cx="8.30543" cy="8.58331" rx="6.80556" ry="6.75" fill="white"/>
</svg>
