<svg width="22" height="22" viewBox="0 0 22 22" fill="none" xmlns="http://www.w3.org/2000/svg">
<path d="M15.216 12.6342L14.6392 13.4307V13.4856L14.7216 13.568L16.2871 15.1336L17.9076 16.7815L18.7316 17.578L20.9288 19.7753L21.9176 20.7915L22 21.0387V21.3134L21.9725 21.5331L21.8077 21.7803C21.7345 21.8352 21.5825 21.9451 21.5605 21.9451C21.5386 21.9451 21.3866 21.9817 21.3134 22L20.9838 21.9725L20.7366 21.8627L20.5993 21.7253L19.8027 20.9288L18.8689 19.995L17.0287 18.1548L15.7104 16.8639L14.7765 15.9301L14.1997 15.3808L13.4582 14.6392L13.1835 14.8315L12.6067 15.216L11.4806 15.8202L10.2447 16.2322L9.36579 16.397L8.56929 16.4794H7.91011L7.41573 16.4245L6.92135 16.3695L6.37204 16.2597L5.71286 16.0949L5.05368 15.8477L4.50437 15.573L3.90012 15.2434L3.46067 14.9413L3.04869 14.6117L2.6367 14.2821L2.22472 13.8702L1.73034 13.2934L1.37328 12.7715L1.01623 12.2222L0.769039 11.7278L0.576779 11.2609L0.357054 10.6567L0.219725 10.1348L0.109863 9.58552L0.0274657 8.98127L0 8.54182V7.91011L0.0274657 7.49813L0.082397 7.00375L0.19226 6.45443L0.357054 5.79526L0.604245 5.10861L0.906367 4.44944L1.18102 3.98252L1.45568 3.54307L1.67541 3.24095L2.08739 2.74657L2.60924 2.19725L2.91136 1.95006L3.29588 1.62047L3.84519 1.26342L4.25718 1.01623L4.77903 0.741573L5.24594 0.549313L5.74032 0.357054L6.3171 0.219725L6.78402 0.109863L7.3608 0.0274657L8.07491 0H8.84394L9.2834 0.0549313L9.91511 0.164794L10.5468 0.329588L11.2884 0.576779L11.8102 0.796504L12.387 1.09863L12.9089 1.42821L13.3208 1.73034L13.7603 2.11486L14.1997 2.55431L14.6392 3.02122L15.0237 3.54307L15.3808 4.09238L15.7104 4.72409L15.9026 5.16355L16.1498 5.87765L16.3146 6.53683L16.4245 7.11361L16.4794 7.91011V8.84394L16.4245 9.36579L16.3421 9.86018L16.2322 10.2447L15.985 11.0961L15.7104 11.7278L15.216 12.6342Z" fill="#8363FF"/>
<ellipse cx="8.21212" cy="8.23971" rx="6.72909" ry="6.67416" fill="white"/>
</svg>
