<svg width="474" height="50" viewBox="0 0 474 50" fill="none" xmlns="http://www.w3.org/2000/svg">
<path d="M17.8251 16.6804H17.8658H22.1392H22.1799C22.9124 16.6804 23.4415 16.1514 23.4415 15.4188V6.26165C23.4415 5.52908 22.9124 5 22.1799 5H22.1392H17.8658H17.8251C17.0926 5 16.5635 5.52908 16.5635 6.26165V15.4188C16.5228 16.1921 17.0519 16.6804 17.8251 16.6804Z" fill="#8363FF"/>
<path d="M12.0862 21.5628L12.1269 21.5221L14.7723 18.1848L14.813 18.1441C15.2607 17.5743 15.1793 16.8417 14.6095 16.3534L7.44664 10.6556C6.87686 10.2079 6.14428 10.2893 5.6559 10.8591L5.61521 10.8998L2.96981 14.2371L2.92911 14.2778C2.48143 14.8475 2.56283 15.5801 3.1326 16.0685L10.2955 21.7663C10.906 22.2139 11.6386 22.1325 12.0862 21.5628Z" fill="#8363FF"/>
<path d="M12.3291 29.0531V29.0124L11.393 24.8611V24.8204C11.2302 24.0879 10.6198 23.7216 9.88719 23.8844L0.974241 25.9193C0.24167 26.0821 -0.124611 26.6926 0.038183 27.4251V27.4658L0.974241 31.6171V31.6578C1.13703 32.3903 1.74752 32.7566 2.48009 32.5938L11.393 30.5589C12.1256 30.3961 12.4919 29.7856 12.3291 29.0531Z" fill="#8363FF"/>
<path d="M18.3532 33.529L18.3125 33.4883L14.4869 31.6569L14.4462 31.6162C13.7543 31.2906 13.0624 31.5348 12.7775 32.2267L8.82978 40.4478C8.50419 41.1396 8.74838 41.8315 9.44026 42.1164L9.48096 42.1571L13.3066 43.9885L13.3473 44.0292C14.0392 44.3548 14.731 44.1106 15.0159 43.4187L18.9637 35.1977C19.2486 34.5465 19.0044 33.8546 18.3532 33.529Z" fill="#8363FF"/>
<path d="M25.5967 31.6567L25.5561 31.6974L21.7304 33.5288L21.6897 33.5695C20.9978 33.8951 20.7943 34.587 21.0792 35.2788L25.0677 43.4999C25.3933 44.1918 26.0851 44.3953 26.777 44.1104L26.8177 44.0697L30.6434 42.2383L30.684 42.1976C31.3759 41.872 31.5794 41.1801 31.2945 40.4882L27.3061 32.2672C26.9398 31.5753 26.2479 31.3311 25.5967 31.6567Z" fill="#8363FF"/>
<path d="M28.6071 24.7799V24.8206L27.671 28.9719V29.0126C27.5082 29.7451 27.8745 30.3556 28.6071 30.5184L37.52 32.5533C38.2526 32.7161 38.8631 32.3498 39.0259 31.6173V31.5766L39.9619 27.4253V27.3846C40.1247 26.6521 39.7584 26.0416 39.0259 25.8788L30.1129 23.8439C29.421 23.6811 28.8106 24.0474 28.6071 24.7799Z" fill="#8363FF"/>
<path d="M25.1493 18.1441L25.19 18.1848L27.8354 21.5221L27.8761 21.5628C28.3238 22.1325 29.0564 22.2139 29.6668 21.7663L36.8298 16.0685C37.3995 15.6208 37.4809 14.8882 37.0333 14.2778L36.9926 14.2371L34.3472 10.8998L34.3065 10.8591C33.8588 10.2893 33.1262 10.2079 32.5157 10.6556L25.3528 16.3534C24.783 16.8417 24.7016 17.5336 25.1493 18.1441Z" fill="#8363FF"/>
<g clip-path="url(#clip0_107_51)">
<path d="M50.91 25.9853L69.3357 33.2587V29.0563L56.4054 24.0458V23.7225L69.3357 18.0655V13.7015L50.91 22.1062V25.9853Z" fill="#8363FF"/>
<path d="M76.8241 30.6175V17.7195H88.2297V30.6175H85.8712V19.1567L86.4239 19.7463H78.6299L79.1826 19.1567V30.6175H76.8241ZM95.9939 30.7465C94.9867 30.7465 94.09 30.5315 93.3038 30.1016C92.5176 29.6594 91.8973 29.0575 91.4428 28.2959C90.9883 27.5343 90.761 26.6683 90.761 25.6979C90.761 24.7152 90.9883 23.8491 91.4428 23.0998C91.8973 22.3382 92.5176 21.7425 93.3038 21.3125C94.09 20.8826 94.9867 20.6676 95.9939 20.6676C97.0135 20.6676 97.9164 20.8826 98.7025 21.3125C99.501 21.7425 100.121 22.3321 100.564 23.0814C101.018 23.8307 101.245 24.7029 101.245 25.6979C101.245 26.6683 101.018 27.5343 100.564 28.2959C100.121 29.0575 99.501 29.6594 98.7025 30.1016C97.9164 30.5315 97.0135 30.7465 95.9939 30.7465ZM95.9939 28.775C96.559 28.775 97.0626 28.6521 97.5049 28.4064C97.9471 28.1608 98.291 27.8045 98.5367 27.3377C98.7947 26.871 98.9236 26.3243 98.9236 25.6979C98.9236 25.0591 98.7947 24.5125 98.5367 24.058C98.291 23.5912 97.9471 23.235 97.5049 22.9893C97.0626 22.7436 96.5651 22.6208 96.0124 22.6208C95.4473 22.6208 94.9437 22.7436 94.5015 22.9893C94.0715 23.235 93.7276 23.5912 93.4696 24.058C93.2117 24.5125 93.0827 25.0591 93.0827 25.6979C93.0827 26.3243 93.2117 26.871 93.4696 27.3377C93.7276 27.8045 94.0715 28.1608 94.5015 28.4064C94.9437 28.6521 95.4412 28.775 95.9939 28.775ZM103.521 30.6175V20.7782H111.075V22.7313H105.289L105.824 22.2154V30.6175H103.521ZM118.205 30.7465C117.407 30.7465 116.676 30.5622 116.013 30.1937C115.362 29.8252 114.84 29.2724 114.447 28.5354C114.066 27.7861 113.875 26.8403 113.875 25.6979C113.875 24.5432 114.06 23.5973 114.428 22.8603C114.809 22.1233 115.325 21.5766 115.976 21.2204C116.627 20.8519 117.37 20.6676 118.205 20.6676C119.176 20.6676 120.03 20.8765 120.767 21.2941C121.516 21.7118 122.106 22.2952 122.535 23.0446C122.978 23.7939 123.199 24.6783 123.199 25.6979C123.199 26.7174 122.978 27.608 122.535 28.3696C122.106 29.1189 121.516 29.7024 120.767 30.12C120.03 30.5377 119.176 30.7465 118.205 30.7465ZM112.751 34.1921V20.7782H114.944V23.0998L114.87 25.7163L115.055 28.3327V34.1921H112.751ZM117.947 28.775C118.5 28.775 118.992 28.6521 119.422 28.4064C119.864 28.1608 120.214 27.8045 120.472 27.3377C120.73 26.871 120.859 26.3243 120.859 25.6979C120.859 25.0591 120.73 24.5125 120.472 24.058C120.214 23.5912 119.864 23.235 119.422 22.9893C118.992 22.7436 118.5 22.6208 117.947 22.6208C117.395 22.6208 116.897 22.7436 116.455 22.9893C116.013 23.235 115.663 23.5912 115.405 24.058C115.147 24.5125 115.018 25.0591 115.018 25.6979C115.018 26.3243 115.147 26.871 115.405 27.3377C115.663 27.8045 116.013 28.1608 116.455 28.4064C116.897 28.6521 117.395 28.775 117.947 28.775ZM126.106 34.3211C125.627 34.3211 125.147 34.2412 124.668 34.0816C124.189 33.9219 123.79 33.7008 123.471 33.4182L124.392 31.7231C124.625 31.9319 124.889 32.0977 125.184 32.2206C125.479 32.3434 125.78 32.4048 126.087 32.4048C126.505 32.4048 126.843 32.3004 127.101 32.0916C127.359 31.8828 127.598 31.5327 127.819 31.0413L128.39 29.7515L128.575 29.4751L132.297 20.7782H134.508L129.901 31.4098C129.594 32.1469 129.25 32.7303 128.869 33.1603C128.501 33.5902 128.083 33.8912 127.617 34.0631C127.162 34.2351 126.658 34.3211 126.106 34.3211ZM128.132 30.9676L123.692 20.7782H126.087L129.699 29.2724L128.132 30.9676ZM147.287 30.6175L144.412 25.9005L146.292 24.7397L150.032 30.6175H147.287ZM142.551 26.6744V24.7581H145.85V26.6744H142.551ZM146.513 25.9742L144.339 25.7163L147.324 20.7782H149.774L146.513 25.9742ZM136.895 30.6175H134.168L137.89 24.7397L139.769 25.9005L136.895 30.6175ZM143.233 30.6175H140.948V20.7782H143.233V30.6175ZM141.63 26.6744H138.35V24.7581H141.63V26.6744ZM137.669 25.9742L134.407 20.7782H136.858L139.824 25.7163L137.669 25.9742ZM156.008 30.7465C154.915 30.7465 153.957 30.5315 153.134 30.1016C152.323 29.6594 151.69 29.0575 151.236 28.2959C150.794 27.5343 150.573 26.6683 150.573 25.6979C150.573 24.7152 150.788 23.8491 151.218 23.0998C151.66 22.3382 152.262 21.7425 153.023 21.3125C153.797 20.8826 154.675 20.6676 155.658 20.6676C156.616 20.6676 157.47 20.8765 158.219 21.2941C158.969 21.7118 159.558 22.3014 159.988 23.063C160.418 23.8246 160.633 24.7213 160.633 25.7531C160.633 25.8514 160.627 25.962 160.615 26.0848C160.615 26.2076 160.609 26.3243 160.596 26.4349H152.397V24.9056H159.38L158.477 25.3846C158.49 24.8196 158.373 24.3221 158.127 23.8921C157.882 23.4622 157.544 23.1244 157.114 22.8787C156.696 22.633 156.211 22.5102 155.658 22.5102C155.093 22.5102 154.596 22.633 154.166 22.8787C153.748 23.1244 153.416 23.4683 153.171 23.9106C152.937 24.3405 152.821 24.8503 152.821 25.4399V25.8084C152.821 26.398 152.956 26.9201 153.226 27.3746C153.496 27.8291 153.877 28.1792 154.368 28.4249C154.86 28.6705 155.425 28.7934 156.064 28.7934C156.616 28.7934 157.114 28.7074 157.556 28.5354C157.998 28.3634 158.391 28.0932 158.735 27.7247L159.97 29.1435C159.528 29.6594 158.969 30.0586 158.293 30.3411C157.63 30.6114 156.868 30.7465 156.008 30.7465ZM163.152 30.6175V20.7782H165.455V24.7766H170.412V20.7782H172.715V30.6175H170.412V26.7297H165.455V30.6175H163.152ZM175.802 30.6175V20.7782H178.105V27.264L183.541 20.7782H185.641V30.6175H183.338V24.1317L177.921 30.6175H175.802ZM193.328 30.7465C192.234 30.7465 191.276 30.5315 190.453 30.1016C189.642 29.6594 189.01 29.0575 188.555 28.2959C188.113 27.5343 187.892 26.6683 187.892 25.6979C187.892 24.7152 188.107 23.8491 188.537 23.0998C188.979 22.3382 189.581 21.7425 190.343 21.3125C191.116 20.8826 191.995 20.6676 192.977 20.6676C193.936 20.6676 194.789 20.8765 195.539 21.2941C196.288 21.7118 196.878 22.3014 197.307 23.063C197.737 23.8246 197.952 24.7213 197.952 25.7531C197.952 25.8514 197.946 25.962 197.934 26.0848C197.934 26.2076 197.928 26.3243 197.916 26.4349H189.716V24.9056H196.699L195.797 25.3846C195.809 24.8196 195.692 24.3221 195.446 23.8921C195.201 23.4622 194.863 23.1244 194.433 22.8787C194.015 22.633 193.53 22.5102 192.977 22.5102C192.412 22.5102 191.915 22.633 191.485 22.8787C191.067 23.1244 190.736 23.4683 190.49 23.9106C190.257 24.3405 190.14 24.8503 190.14 25.4399V25.8084C190.14 26.398 190.275 26.9201 190.545 27.3746C190.815 27.8291 191.196 28.1792 191.688 28.4249C192.179 28.6705 192.744 28.7934 193.383 28.7934C193.936 28.7934 194.433 28.7074 194.875 28.5354C195.317 28.3634 195.711 28.0932 196.055 27.7247L197.289 29.1435C196.847 29.6594 196.288 30.0586 195.612 30.3411C194.949 30.6114 194.187 30.7465 193.328 30.7465ZM205.564 30.6175V20.7782H210.373C211.564 20.7782 212.498 20.9993 213.174 21.4415C213.861 21.8837 214.205 22.5102 214.205 23.3209C214.205 24.1194 213.886 24.7459 213.247 25.2004C212.609 25.6426 211.761 25.8637 210.705 25.8637L210.981 25.2925C212.172 25.2925 213.057 25.5136 213.634 25.9558C214.224 26.3858 214.519 27.0184 214.519 27.8537C214.519 28.7258 214.193 29.4076 213.542 29.8989C212.891 30.378 211.902 30.6175 210.576 30.6175H205.564ZM207.756 28.9408H210.391C211.018 28.9408 211.491 28.8425 211.81 28.646C212.129 28.4371 212.289 28.1239 212.289 27.7063C212.289 27.264 212.142 26.9385 211.847 26.7297C211.552 26.5209 211.091 26.4165 210.465 26.4165H207.756V28.9408ZM207.756 24.8871H210.17C210.76 24.8871 211.202 24.7827 211.497 24.5739C211.804 24.3528 211.957 24.0457 211.957 23.6526C211.957 23.2472 211.804 22.9463 211.497 22.7497C211.202 22.5532 210.76 22.4549 210.17 22.4549H207.756V24.8871ZM222.064 30.6175V20.7782H231.498V30.6175H229.213V22.197L229.748 22.7313H223.833L224.367 22.197V30.6175H222.064ZM240.06 30.7465C239.261 30.7465 238.531 30.5622 237.867 30.1937C237.216 29.8252 236.694 29.2724 236.301 28.5354C235.92 27.7861 235.73 26.8403 235.73 25.6979C235.73 24.5432 235.914 23.5973 236.283 22.8603C236.663 22.1233 237.179 21.5766 237.83 21.2204C238.481 20.8519 239.225 20.6676 240.06 20.6676C241.03 20.6676 241.884 20.8765 242.621 21.2941C243.37 21.7118 243.96 22.2952 244.39 23.0446C244.832 23.7939 245.053 24.6783 245.053 25.6979C245.053 26.7174 244.832 27.608 244.39 28.3696C243.96 29.1189 243.37 29.7024 242.621 30.12C241.884 30.5377 241.03 30.7465 240.06 30.7465ZM234.606 34.1921V20.7782H236.799V23.0998L236.725 25.7163L236.909 28.3327V34.1921H234.606ZM239.802 28.775C240.355 28.775 240.846 28.6521 241.276 28.4064C241.718 28.1608 242.068 27.8045 242.326 27.3377C242.584 26.871 242.713 26.3243 242.713 25.6979C242.713 25.0591 242.584 24.5125 242.326 24.058C242.068 23.5912 241.718 23.235 241.276 22.9893C240.846 22.7436 240.355 22.6208 239.802 22.6208C239.249 22.6208 238.752 22.7436 238.309 22.9893C237.867 23.235 237.517 23.5912 237.259 24.058C237.001 24.5125 236.872 25.0591 236.872 25.6979C236.872 26.3243 237.001 26.871 237.259 27.3377C237.517 27.8045 237.867 28.1608 238.309 28.4064C238.752 28.6521 239.249 28.775 239.802 28.775ZM251.731 30.7465C250.724 30.7465 249.827 30.5315 249.041 30.1016C248.255 29.6594 247.634 29.0575 247.18 28.2959C246.725 27.5343 246.498 26.6683 246.498 25.6979C246.498 24.7152 246.725 23.8491 247.18 23.0998C247.634 22.3382 248.255 21.7425 249.041 21.3125C249.827 20.8826 250.724 20.6676 251.731 20.6676C252.75 20.6676 253.653 20.8826 254.439 21.3125C255.238 21.7425 255.858 22.3321 256.3 23.0814C256.755 23.8307 256.982 24.7029 256.982 25.6979C256.982 26.6683 256.755 27.5343 256.3 28.2959C255.858 29.0575 255.238 29.6594 254.439 30.1016C253.653 30.5315 252.75 30.7465 251.731 30.7465ZM251.731 28.775C252.296 28.775 252.8 28.6521 253.242 28.4064C253.684 28.1608 254.028 27.8045 254.274 27.3377C254.532 26.871 254.661 26.3243 254.661 25.6979C254.661 25.0591 254.532 24.5125 254.274 24.058C254.028 23.5912 253.684 23.235 253.242 22.9893C252.8 22.7436 252.302 22.6208 251.749 22.6208C251.184 22.6208 250.681 22.7436 250.238 22.9893C249.808 23.235 249.464 23.5912 249.207 24.058C248.949 24.5125 248.82 25.0591 248.82 25.6979C248.82 26.3243 248.949 26.871 249.207 27.3377C249.464 27.8045 249.808 28.1608 250.238 28.4064C250.681 28.6521 251.178 28.775 251.731 28.775ZM259.257 30.6175V20.7782H266.812V22.7313H261.026L261.561 22.2154V30.6175H259.257ZM273.942 30.7465C273.144 30.7465 272.413 30.5622 271.75 30.1937C271.099 29.8252 270.577 29.2724 270.183 28.5354C269.803 27.7861 269.612 26.8403 269.612 25.6979C269.612 24.5432 269.797 23.5973 270.165 22.8603C270.546 22.1233 271.062 21.5766 271.713 21.2204C272.364 20.8519 273.107 20.6676 273.942 20.6676C274.913 20.6676 275.766 20.8765 276.503 21.2941C277.253 21.7118 277.842 22.2952 278.272 23.0446C278.715 23.7939 278.936 24.6783 278.936 25.6979C278.936 26.7174 278.715 27.608 278.272 28.3696C277.842 29.1189 277.253 29.7024 276.503 30.12C275.766 30.5377 274.913 30.7465 273.942 30.7465ZM268.488 34.1921V20.7782H270.681V23.0998L270.607 25.7163L270.792 28.3327V34.1921H268.488ZM273.684 28.775C274.237 28.775 274.728 28.6521 275.158 28.4064C275.601 28.1608 275.951 27.8045 276.209 27.3377C276.467 26.871 276.596 26.3243 276.596 25.6979C276.596 25.0591 276.467 24.5125 276.209 24.058C275.951 23.5912 275.601 23.235 275.158 22.9893C274.728 22.7436 274.237 22.6208 273.684 22.6208C273.132 22.6208 272.634 22.7436 272.192 22.9893C271.75 23.235 271.4 23.5912 271.142 24.058C270.884 24.5125 270.755 25.0591 270.755 25.6979C270.755 26.3243 270.884 26.871 271.142 27.3377C271.4 27.8045 271.75 28.1608 272.192 28.4064C272.634 28.6521 273.132 28.775 273.684 28.775ZM287.072 30.6175V28.6275L286.943 28.2038V24.7213C286.943 24.0457 286.74 23.5236 286.335 23.1551C285.93 22.7743 285.315 22.5839 284.492 22.5839C283.94 22.5839 283.393 22.6699 282.852 22.8419C282.324 23.0138 281.876 23.2534 281.507 23.5605L280.605 21.8837C281.133 21.4784 281.759 21.1774 282.484 20.9809C283.221 20.772 283.983 20.6676 284.769 20.6676C286.194 20.6676 287.293 21.0116 288.067 21.6995C288.853 22.3751 289.246 23.4254 289.246 24.8503V30.6175H287.072ZM283.976 30.7465C283.239 30.7465 282.594 30.6237 282.042 30.378C281.489 30.12 281.059 29.7699 280.752 29.3277C280.457 28.8732 280.31 28.3634 280.31 27.7984C280.31 27.2456 280.439 26.7481 280.697 26.3059C280.967 25.8637 281.403 25.5136 282.005 25.2556C282.607 24.9977 283.405 24.8687 284.4 24.8687H287.256V26.398H284.566C283.78 26.398 283.252 26.527 282.981 26.785C282.711 27.0307 282.576 27.3377 282.576 27.7063C282.576 28.1239 282.742 28.4556 283.074 28.7012C283.405 28.9469 283.866 29.0698 284.455 29.0698C285.021 29.0698 285.524 28.9408 285.966 28.6828C286.421 28.4249 286.746 28.0441 286.943 27.5404L287.33 28.9224C287.109 29.4997 286.71 29.9481 286.132 30.2674C285.567 30.5868 284.849 30.7465 283.976 30.7465ZM292.096 30.6175V20.7782H294.51L298.472 27.7615H297.513L301.678 20.7782H303.833L303.852 30.6175H301.77V23.2472L302.138 23.4868L298.453 29.5857H297.458L293.755 23.3209L294.197 23.2104V30.6175H292.096ZM306.941 30.6175V20.7782H309.355L313.316 27.7615H312.358L316.523 20.7782H318.678L318.697 30.6175H316.615V23.2472L316.983 23.4868L313.298 29.5857H312.303L308.6 23.3209L309.042 23.2104V30.6175H306.941ZM321.786 30.6175V20.7782H324.089V27.264L329.525 20.7782H331.625V30.6175H329.322V24.1317L323.905 30.6175H321.786ZM340.178 30.7465C339.379 30.7465 338.648 30.5622 337.985 30.1937C337.334 29.8252 336.812 29.2724 336.419 28.5354C336.038 27.7861 335.848 26.8403 335.848 25.6979C335.848 24.5432 336.032 23.5973 336.4 22.8603C336.781 22.1233 337.297 21.5766 337.948 21.2204C338.599 20.8519 339.342 20.6676 340.178 20.6676C341.148 20.6676 342.002 20.8765 342.739 21.2941C343.488 21.7118 344.078 22.2952 344.508 23.0446C344.95 23.7939 345.171 24.6783 345.171 25.6979C345.171 26.7174 344.95 27.608 344.508 28.3696C344.078 29.1189 343.488 29.7024 342.739 30.12C342.002 30.5377 341.148 30.7465 340.178 30.7465ZM334.724 34.1921V20.7782H336.916V23.0998L336.843 25.7163L337.027 28.3327V34.1921H334.724ZM339.92 28.775C340.473 28.775 340.964 28.6521 341.394 28.4064C341.836 28.1608 342.186 27.8045 342.444 27.3377C342.702 26.871 342.831 26.3243 342.831 25.6979C342.831 25.0591 342.702 24.5125 342.444 24.058C342.186 23.5912 341.836 23.235 341.394 22.9893C340.964 22.7436 340.473 22.6208 339.92 22.6208C339.367 22.6208 338.87 22.7436 338.427 22.9893C337.985 23.235 337.635 23.5912 337.377 24.058C337.119 24.5125 336.99 25.0591 336.99 25.6979C336.99 26.3243 337.119 26.871 337.377 27.3377C337.635 27.8045 337.985 28.1608 338.427 28.4064C338.87 28.6521 339.367 28.775 339.92 28.775ZM351.849 30.7465C350.841 30.7465 349.945 30.5315 349.159 30.1016C348.372 29.6594 347.752 29.0575 347.298 28.2959C346.843 27.5343 346.616 26.6683 346.616 25.6979C346.616 24.7152 346.843 23.8491 347.298 23.0998C347.752 22.3382 348.372 21.7425 349.159 21.3125C349.945 20.8826 350.841 20.6676 351.849 20.6676C352.868 20.6676 353.771 20.8826 354.557 21.3125C355.356 21.7425 355.976 22.3321 356.418 23.0814C356.873 23.8307 357.1 24.7029 357.1 25.6979C357.1 26.6683 356.873 27.5343 356.418 28.2959C355.976 29.0575 355.356 29.6594 354.557 30.1016C353.771 30.5315 352.868 30.7465 351.849 30.7465ZM351.849 28.775C352.414 28.775 352.917 28.6521 353.36 28.4064C353.802 28.1608 354.146 27.8045 354.391 27.3377C354.649 26.871 354.778 26.3243 354.778 25.6979C354.778 25.0591 354.649 24.5125 354.391 24.058C354.146 23.5912 353.802 23.235 353.36 22.9893C352.917 22.7436 352.42 22.6208 351.867 22.6208C351.302 22.6208 350.798 22.7436 350.356 22.9893C349.926 23.235 349.582 23.5912 349.324 24.058C349.066 24.5125 348.937 25.0591 348.937 25.6979C348.937 26.3243 349.066 26.871 349.324 27.3377C349.582 27.8045 349.926 28.1608 350.356 28.4064C350.798 28.6521 351.296 28.775 351.849 28.775ZM359.375 30.6175V20.7782H364.184C365.376 20.7782 366.31 20.9993 366.985 21.4415C367.673 21.8837 368.017 22.5102 368.017 23.3209C368.017 24.1194 367.698 24.7459 367.059 25.2004C366.42 25.6426 365.572 25.8637 364.516 25.8637L364.792 25.2925C365.984 25.2925 366.868 25.5136 367.446 25.9558C368.035 26.3858 368.33 27.0184 368.33 27.8537C368.33 28.7258 368.005 29.4076 367.354 29.8989C366.703 30.378 365.714 30.6175 364.387 30.6175H359.375ZM361.568 28.9408H364.203C364.829 28.9408 365.302 28.8425 365.622 28.646C365.941 28.4371 366.101 28.1239 366.101 27.7063C366.101 27.264 365.953 26.9385 365.658 26.7297C365.364 26.5209 364.903 26.4165 364.277 26.4165H361.568V28.9408ZM361.568 24.8871H363.982C364.571 24.8871 365.014 24.7827 365.308 24.5739C365.615 24.3528 365.769 24.0457 365.769 23.6526C365.769 23.2472 365.615 22.9463 365.308 22.7497C365.014 22.5532 364.571 22.4549 363.982 22.4549H361.568V24.8871ZM376.753 30.6175V28.6275L376.624 28.2038V24.7213C376.624 24.0457 376.422 23.5236 376.016 23.1551C375.611 22.7743 374.997 22.5839 374.174 22.5839C373.621 22.5839 373.074 22.6699 372.534 22.8419C372.006 23.0138 371.557 23.2534 371.189 23.5605L370.286 21.8837C370.814 21.4784 371.441 21.1774 372.165 20.9809C372.902 20.772 373.664 20.6676 374.45 20.6676C375.875 20.6676 376.974 21.0116 377.748 21.6995C378.535 22.3751 378.928 23.4254 378.928 24.8503V30.6175H376.753ZM373.658 30.7465C372.921 30.7465 372.276 30.6237 371.723 30.378C371.17 30.12 370.74 29.7699 370.433 29.3277C370.139 28.8732 369.991 28.3634 369.991 27.7984C369.991 27.2456 370.12 26.7481 370.378 26.3059C370.648 25.8637 371.084 25.5136 371.686 25.2556C372.288 24.9977 373.087 24.8687 374.082 24.8687H376.938V26.398H374.247C373.461 26.398 372.933 26.527 372.663 26.785C372.393 27.0307 372.257 27.3377 372.257 27.7063C372.257 28.1239 372.423 28.4556 372.755 28.7012C373.087 28.9469 373.547 29.0698 374.137 29.0698C374.702 29.0698 375.206 28.9408 375.648 28.6828C376.102 28.4249 376.428 28.0441 376.624 27.5404L377.011 28.9224C376.79 29.4997 376.391 29.9481 375.814 30.2674C375.249 30.5868 374.53 30.7465 373.658 30.7465ZM381.778 30.6175V20.7782H384.081V24.7766H389.037V20.7782H391.341V30.6175H389.037V26.7297H384.081V30.6175H381.778ZM394.427 30.6175V20.7782H396.731V27.264L402.166 20.7782H404.267V30.6175H401.963V24.1317L396.546 30.6175H394.427ZM411.953 30.7465C410.86 30.7465 409.902 30.5315 409.079 30.1016C408.268 29.6594 407.635 29.0575 407.181 28.2959C406.738 27.5343 406.517 26.6683 406.517 25.6979C406.517 24.7152 406.732 23.8491 407.162 23.0998C407.604 22.3382 408.206 21.7425 408.968 21.3125C409.742 20.8826 410.62 20.6676 411.603 20.6676C412.561 20.6676 413.415 20.8765 414.164 21.2941C414.913 21.7118 415.503 22.3014 415.933 23.063C416.363 23.8246 416.578 24.7213 416.578 25.7531C416.578 25.8514 416.572 25.962 416.559 26.0848C416.559 26.2076 416.553 26.3243 416.541 26.4349H408.341V24.9056H415.325L414.422 25.3846C414.434 24.8196 414.318 24.3221 414.072 23.8921C413.826 23.4622 413.488 23.1244 413.058 22.8787C412.641 22.633 412.156 22.5102 411.603 22.5102C411.038 22.5102 410.54 22.633 410.11 22.8787C409.693 23.1244 409.361 23.4683 409.115 23.9106C408.882 24.3405 408.765 24.8503 408.765 25.4399V25.8084C408.765 26.398 408.9 26.9201 409.171 27.3746C409.441 27.8291 409.822 28.1792 410.313 28.4249C410.804 28.6705 411.369 28.7934 412.008 28.7934C412.561 28.7934 413.058 28.7074 413.501 28.5354C413.943 28.3634 414.336 28.0932 414.68 27.7247L415.914 29.1435C415.472 29.6594 414.913 30.0586 414.238 30.3411C413.574 30.6114 412.813 30.7465 411.953 30.7465Z" fill="#2F3337"/>
<path d="M460.426 25.9013L442 33.1746V28.9723L454.93 23.9618V23.6385L442 17.9815V13.6175L460.426 22.0222V25.9013Z" fill="#8363FF"/>
<rect x="436.718" y="12.6175" width="4" height="24" transform="rotate(23.6701 436.718 12.6175)" fill="#8363FF"/>
</g>
<defs>
<clipPath id="clip0_107_51">
<rect width="423" height="24" fill="white" transform="translate(51 12.6175)"/>
</clipPath>
</defs>
</svg>
